<svg width="725" height="723" viewBox="0 0 725 723" fill="none" xmlns="http://www.w3.org/2000/svg">
<g filter="url(#filter0_d)">
<mask id="path-1-inside-1" fill="white">
<path d="M344.101 1.14312C322.787 4.53631 302.858 13.8588 286.593 28.0447C270.327 42.2306 258.382 60.7072 252.123 81.3621C245.864 102.017 245.544 124.016 251.198 144.845C256.853 165.673 268.255 184.49 284.101 199.143C295.101 210.143 297.101 213.143 301.101 220.143C305.101 230.143 307.101 236.143 307.101 246.143C307.101 262.143 301.101 275.143 289.101 287.143C283.861 292.72 277.496 297.119 270.428 300.05C263.36 302.981 255.749 304.376 248.101 304.143C231.101 304.143 220.101 299.143 203.101 282.143C185.101 266.143 172.101 257.143 154.101 252.143C108.101 237.143 57.1006 253.143 28.1006 291.143C10.9997 313.074 2.50519 340.499 4.21607 368.257C5.92695 396.014 17.7252 422.189 37.3899 441.854C57.0546 461.519 83.2294 473.317 110.987 475.028C138.744 476.739 166.17 468.244 188.101 451.143C195.101 446.143 198.101 442.143 210.101 429.143C215.101 424.143 225.101 418.143 233.101 415.143C261.101 407.143 290.101 419.143 303.101 445.143C308.101 455.143 309.101 462.143 309.101 474.143C308.101 490.143 302.101 503.143 291.101 514.143C277.331 526.103 266.632 541.193 259.902 558.144C253.172 575.096 250.607 593.415 252.424 611.563C254.24 629.711 260.384 647.158 270.34 662.44C280.296 677.721 293.773 690.391 309.64 699.385C325.507 708.379 343.3 713.435 361.526 714.128C379.751 714.821 397.877 711.131 414.381 703.367C430.885 695.604 445.285 683.994 456.373 669.513C467.46 655.031 474.912 638.101 478.101 620.143C480.101 607.143 479.101 587.143 476.101 575.143C470.101 552.143 462.101 537.143 443.101 518.143C426.101 500.143 423.101 494.143 419.101 479.143C414.101 454.143 428.101 427.143 452.101 416.143C465.101 410.143 477.101 409.143 490.101 412.143C503.101 415.143 509.101 419.143 521.101 432.143C532.96 444.855 547.548 454.713 563.767 460.975C579.985 467.237 597.413 469.74 614.738 468.297C632.064 466.853 648.836 461.5 663.795 452.64C678.753 443.779 691.508 431.643 701.101 417.143C713.101 400.143 719.101 381.143 720.101 360.143C721.101 327.143 710.101 298.143 686.101 274.143C675.192 263.163 662.144 254.542 647.766 248.813C633.388 243.083 617.986 240.369 602.516 240.838C587.045 241.307 571.836 244.949 557.831 251.538C543.826 258.127 531.324 267.523 521.101 279.143L505.101 293.143C492.101 301.143 476.101 304.143 463.101 301.143C442.101 296.143 428.101 283.143 420.101 263.143C417.101 256.143 417.101 254.143 417.101 243.143C417.101 233.143 417.101 231.143 419.101 225.143C423.101 214.143 428.101 208.143 437.101 199.143C463.101 173.143 475.101 144.143 474.101 109.143C473.422 93.2356 469.419 77.6465 462.349 63.3802C455.279 49.1139 445.299 36.4868 433.052 26.3123C420.805 16.1378 406.563 8.64162 391.242 4.30663C375.922 -0.0283608 359.863 -1.10601 344.101 1.14312ZM381.101 50.1431C401.101 57.1431 418.101 74.1431 424.101 95.1431C427.101 106.143 427.101 122.143 424.101 133.143C419.985 146.191 412.084 157.721 401.4 166.268C390.717 174.814 377.734 179.992 364.101 181.143C354.157 181.922 344.166 180.471 334.854 176.896C325.543 173.321 317.148 167.712 310.281 160.479C303.414 153.246 298.248 144.571 295.161 135.087C292.074 125.603 291.143 115.55 292.436 105.66C293.729 95.7705 297.214 86.2944 302.636 77.9233C308.058 69.5522 315.281 62.4973 323.777 57.2733C332.273 52.0492 341.829 48.788 351.746 47.7274C361.663 46.6669 371.692 47.8339 381.101 51.1431V50.1431ZM627.101 292.143C640.705 296.585 652.529 305.267 660.842 316.916C669.155 328.566 673.519 342.571 673.296 356.881C673.072 371.19 668.273 385.052 659.6 396.436C650.927 407.82 638.837 416.128 625.101 420.143L606.101 421.143C596.101 421.143 593.101 421.143 586.101 419.143C573.601 415.012 562.595 407.29 554.458 396.942C546.321 386.594 541.412 374.078 540.345 360.957C539.279 347.835 542.101 334.691 548.46 323.164C554.819 311.637 564.433 302.239 576.101 296.143C588.101 290.143 596.101 288.143 609.101 288.143C616.101 289.143 621.101 289.143 627.101 292.143ZM139.101 296.143C159.101 302.143 175.101 318.143 182.101 339.143C185.101 347.143 185.101 349.143 185.101 360.143C185.101 371.143 185.101 373.143 183.101 380.143C173.101 407.143 150.101 425.143 122.101 427.143C111.101 427.143 101.101 425.143 89.1006 419.143C78.0795 413.522 68.8605 404.915 62.4951 394.306C56.1298 383.698 52.8744 371.513 53.1006 359.143C53.1006 349.143 53.1006 347.143 56.1006 339.143C64.1006 316.143 82.1006 300.143 105.101 294.143C114.101 292.143 130.101 293.143 139.101 296.143ZM385.101 537.143C406.101 544.143 421.101 559.143 428.101 580.143C431.101 588.143 431.101 590.143 431.101 600.143C431.101 611.143 431.101 614.143 429.101 621.143C424.975 634.843 416.573 646.863 405.123 655.443C393.673 664.023 379.777 668.712 365.469 668.824C351.162 668.936 337.194 664.464 325.612 656.064C314.029 647.664 305.439 635.777 301.101 622.143C299.101 615.143 299.101 612.143 299.101 601.143C299.101 590.143 299.101 588.143 302.101 580.143C306.777 566.452 315.699 554.609 327.568 546.336C339.438 538.063 353.637 533.792 368.101 534.143C375.101 535.143 380.101 535.143 385.101 537.143Z"/>
</mask>
<path d="M344.101 1.14312C322.787 4.53631 302.858 13.8588 286.593 28.0447C270.327 42.2306 258.382 60.7072 252.123 81.3621C245.864 102.017 245.544 124.016 251.198 144.845C256.853 165.673 268.255 184.49 284.101 199.143C295.101 210.143 297.101 213.143 301.101 220.143C305.101 230.143 307.101 236.143 307.101 246.143C307.101 262.143 301.101 275.143 289.101 287.143C283.861 292.72 277.496 297.119 270.428 300.05C263.36 302.981 255.749 304.376 248.101 304.143C231.101 304.143 220.101 299.143 203.101 282.143C185.101 266.143 172.101 257.143 154.101 252.143C108.101 237.143 57.1006 253.143 28.1006 291.143C10.9997 313.074 2.50519 340.499 4.21607 368.257C5.92695 396.014 17.7252 422.189 37.3899 441.854C57.0546 461.519 83.2294 473.317 110.987 475.028C138.744 476.739 166.17 468.244 188.101 451.143C195.101 446.143 198.101 442.143 210.101 429.143C215.101 424.143 225.101 418.143 233.101 415.143C261.101 407.143 290.101 419.143 303.101 445.143C308.101 455.143 309.101 462.143 309.101 474.143C308.101 490.143 302.101 503.143 291.101 514.143C277.331 526.103 266.632 541.193 259.902 558.144C253.172 575.096 250.607 593.415 252.424 611.563C254.24 629.711 260.384 647.158 270.34 662.44C280.296 677.721 293.773 690.391 309.64 699.385C325.507 708.379 343.3 713.435 361.526 714.128C379.751 714.821 397.877 711.131 414.381 703.367C430.885 695.604 445.285 683.994 456.373 669.513C467.46 655.031 474.912 638.101 478.101 620.143C480.101 607.143 479.101 587.143 476.101 575.143C470.101 552.143 462.101 537.143 443.101 518.143C426.101 500.143 423.101 494.143 419.101 479.143C414.101 454.143 428.101 427.143 452.101 416.143C465.101 410.143 477.101 409.143 490.101 412.143C503.101 415.143 509.101 419.143 521.101 432.143C532.96 444.855 547.548 454.713 563.767 460.975C579.985 467.237 597.413 469.74 614.738 468.297C632.064 466.853 648.836 461.5 663.795 452.64C678.753 443.779 691.508 431.643 701.101 417.143C713.101 400.143 719.101 381.143 720.101 360.143C721.101 327.143 710.101 298.143 686.101 274.143C675.192 263.163 662.144 254.542 647.766 248.813C633.388 243.083 617.986 240.369 602.516 240.838C587.045 241.307 571.836 244.949 557.831 251.538C543.826 258.127 531.324 267.523 521.101 279.143L505.101 293.143C492.101 301.143 476.101 304.143 463.101 301.143C442.101 296.143 428.101 283.143 420.101 263.143C417.101 256.143 417.101 254.143 417.101 243.143C417.101 233.143 417.101 231.143 419.101 225.143C423.101 214.143 428.101 208.143 437.101 199.143C463.101 173.143 475.101 144.143 474.101 109.143C473.422 93.2356 469.419 77.6465 462.349 63.3802C455.279 49.1139 445.299 36.4868 433.052 26.3123C420.805 16.1378 406.563 8.64162 391.242 4.30663C375.922 -0.0283608 359.863 -1.10601 344.101 1.14312ZM381.101 50.1431C401.101 57.1431 418.101 74.1431 424.101 95.1431C427.101 106.143 427.101 122.143 424.101 133.143C419.985 146.191 412.084 157.721 401.4 166.268C390.717 174.814 377.734 179.992 364.101 181.143C354.157 181.922 344.166 180.471 334.854 176.896C325.543 173.321 317.148 167.712 310.281 160.479C303.414 153.246 298.248 144.571 295.161 135.087C292.074 125.603 291.143 115.55 292.436 105.66C293.729 95.7705 297.214 86.2944 302.636 77.9233C308.058 69.5522 315.281 62.4973 323.777 57.2733C332.273 52.0492 341.829 48.788 351.746 47.7274C361.663 46.6669 371.692 47.8339 381.101 51.1431V50.1431ZM627.101 292.143C640.705 296.585 652.529 305.267 660.842 316.916C669.155 328.566 673.519 342.571 673.296 356.881C673.072 371.19 668.273 385.052 659.6 396.436C650.927 407.82 638.837 416.128 625.101 420.143L606.101 421.143C596.101 421.143 593.101 421.143 586.101 419.143C573.601 415.012 562.595 407.29 554.458 396.942C546.321 386.594 541.412 374.078 540.345 360.957C539.279 347.835 542.101 334.691 548.46 323.164C554.819 311.637 564.433 302.239 576.101 296.143C588.101 290.143 596.101 288.143 609.101 288.143C616.101 289.143 621.101 289.143 627.101 292.143ZM139.101 296.143C159.101 302.143 175.101 318.143 182.101 339.143C185.101 347.143 185.101 349.143 185.101 360.143C185.101 371.143 185.101 373.143 183.101 380.143C173.101 407.143 150.101 425.143 122.101 427.143C111.101 427.143 101.101 425.143 89.1006 419.143C78.0795 413.522 68.8605 404.915 62.4951 394.306C56.1298 383.698 52.8744 371.513 53.1006 359.143C53.1006 349.143 53.1006 347.143 56.1006 339.143C64.1006 316.143 82.1006 300.143 105.101 294.143C114.101 292.143 130.101 293.143 139.101 296.143ZM385.101 537.143C406.101 544.143 421.101 559.143 428.101 580.143C431.101 588.143 431.101 590.143 431.101 600.143C431.101 611.143 431.101 614.143 429.101 621.143C424.975 634.843 416.573 646.863 405.123 655.443C393.673 664.023 379.777 668.712 365.469 668.824C351.162 668.936 337.194 664.464 325.612 656.064C314.029 647.664 305.439 635.777 301.101 622.143C299.101 615.143 299.101 612.143 299.101 601.143C299.101 590.143 299.101 588.143 302.101 580.143C306.777 566.452 315.699 554.609 327.568 546.336C339.438 538.063 353.637 533.792 368.101 534.143C375.101 535.143 380.101 535.143 385.101 537.143Z" fill="white"/>
<path d="M344.101 1.14312C322.787 4.53631 302.858 13.8588 286.593 28.0447C270.327 42.2306 258.382 60.7072 252.123 81.3621C245.864 102.017 245.544 124.016 251.198 144.845C256.853 165.673 268.255 184.49 284.101 199.143C295.101 210.143 297.101 213.143 301.101 220.143C305.101 230.143 307.101 236.143 307.101 246.143C307.101 262.143 301.101 275.143 289.101 287.143C283.861 292.72 277.496 297.119 270.428 300.05C263.36 302.981 255.749 304.376 248.101 304.143C231.101 304.143 220.101 299.143 203.101 282.143C185.101 266.143 172.101 257.143 154.101 252.143C108.101 237.143 57.1006 253.143 28.1006 291.143C10.9997 313.074 2.50519 340.499 4.21607 368.257C5.92695 396.014 17.7252 422.189 37.3899 441.854C57.0546 461.519 83.2294 473.317 110.987 475.028C138.744 476.739 166.17 468.244 188.101 451.143C195.101 446.143 198.101 442.143 210.101 429.143C215.101 424.143 225.101 418.143 233.101 415.143C261.101 407.143 290.101 419.143 303.101 445.143C308.101 455.143 309.101 462.143 309.101 474.143C308.101 490.143 302.101 503.143 291.101 514.143C277.331 526.103 266.632 541.193 259.902 558.144C253.172 575.096 250.607 593.415 252.424 611.563C254.24 629.711 260.384 647.158 270.34 662.44C280.296 677.721 293.773 690.391 309.64 699.385C325.507 708.379 343.3 713.435 361.526 714.128C379.751 714.821 397.877 711.131 414.381 703.367C430.885 695.604 445.285 683.994 456.373 669.513C467.46 655.031 474.912 638.101 478.101 620.143C480.101 607.143 479.101 587.143 476.101 575.143C470.101 552.143 462.101 537.143 443.101 518.143C426.101 500.143 423.101 494.143 419.101 479.143C414.101 454.143 428.101 427.143 452.101 416.143C465.101 410.143 477.101 409.143 490.101 412.143C503.101 415.143 509.101 419.143 521.101 432.143C532.96 444.855 547.548 454.713 563.767 460.975C579.985 467.237 597.413 469.74 614.738 468.297C632.064 466.853 648.836 461.5 663.795 452.64C678.753 443.779 691.508 431.643 701.101 417.143C713.101 400.143 719.101 381.143 720.101 360.143C721.101 327.143 710.101 298.143 686.101 274.143C675.192 263.163 662.144 254.542 647.766 248.813C633.388 243.083 617.986 240.369 602.516 240.838C587.045 241.307 571.836 244.949 557.831 251.538C543.826 258.127 531.324 267.523 521.101 279.143L505.101 293.143C492.101 301.143 476.101 304.143 463.101 301.143C442.101 296.143 428.101 283.143 420.101 263.143C417.101 256.143 417.101 254.143 417.101 243.143C417.101 233.143 417.101 231.143 419.101 225.143C423.101 214.143 428.101 208.143 437.101 199.143C463.101 173.143 475.101 144.143 474.101 109.143C473.422 93.2356 469.419 77.6465 462.349 63.3802C455.279 49.1139 445.299 36.4868 433.052 26.3123C420.805 16.1378 406.563 8.64162 391.242 4.30663C375.922 -0.0283608 359.863 -1.10601 344.101 1.14312ZM381.101 50.1431C401.101 57.1431 418.101 74.1431 424.101 95.1431C427.101 106.143 427.101 122.143 424.101 133.143C419.985 146.191 412.084 157.721 401.4 166.268C390.717 174.814 377.734 179.992 364.101 181.143C354.157 181.922 344.166 180.471 334.854 176.896C325.543 173.321 317.148 167.712 310.281 160.479C303.414 153.246 298.248 144.571 295.161 135.087C292.074 125.603 291.143 115.55 292.436 105.66C293.729 95.7705 297.214 86.2944 302.636 77.9233C308.058 69.5522 315.281 62.4973 323.777 57.2733C332.273 52.0492 341.829 48.788 351.746 47.7274C361.663 46.6669 371.692 47.8339 381.101 51.1431V50.1431ZM627.101 292.143C640.705 296.585 652.529 305.267 660.842 316.916C669.155 328.566 673.519 342.571 673.296 356.881C673.072 371.19 668.273 385.052 659.6 396.436C650.927 407.82 638.837 416.128 625.101 420.143L606.101 421.143C596.101 421.143 593.101 421.143 586.101 419.143C573.601 415.012 562.595 407.29 554.458 396.942C546.321 386.594 541.412 374.078 540.345 360.957C539.279 347.835 542.101 334.691 548.46 323.164C554.819 311.637 564.433 302.239 576.101 296.143C588.101 290.143 596.101 288.143 609.101 288.143C616.101 289.143 621.101 289.143 627.101 292.143ZM139.101 296.143C159.101 302.143 175.101 318.143 182.101 339.143C185.101 347.143 185.101 349.143 185.101 360.143C185.101 371.143 185.101 373.143 183.101 380.143C173.101 407.143 150.101 425.143 122.101 427.143C111.101 427.143 101.101 425.143 89.1006 419.143C78.0795 413.522 68.8605 404.915 62.4951 394.306C56.1298 383.698 52.8744 371.513 53.1006 359.143C53.1006 349.143 53.1006 347.143 56.1006 339.143C64.1006 316.143 82.1006 300.143 105.101 294.143C114.101 292.143 130.101 293.143 139.101 296.143ZM385.101 537.143C406.101 544.143 421.101 559.143 428.101 580.143C431.101 588.143 431.101 590.143 431.101 600.143C431.101 611.143 431.101 614.143 429.101 621.143C424.975 634.843 416.573 646.863 405.123 655.443C393.673 664.023 379.777 668.712 365.469 668.824C351.162 668.936 337.194 664.464 325.612 656.064C314.029 647.664 305.439 635.777 301.101 622.143C299.101 615.143 299.101 612.143 299.101 601.143C299.101 590.143 299.101 588.143 302.101 580.143C306.777 566.452 315.699 554.609 327.568 546.336C339.438 538.063 353.637 533.792 368.101 534.143C375.101 535.143 380.101 535.143 385.101 537.143Z" stroke="black" stroke-width="2" mask="url(#path-1-inside-1)"/>
</g>
<defs>
<filter id="filter0_d" x="0" y="0" width="724.163" height="722.21" filterUnits="userSpaceOnUse" color-interpolation-filters="sRGB">
<feFlood flood-opacity="0" result="BackgroundImageFix"/>
<feColorMatrix in="SourceAlpha" type="matrix" values="0 0 0 0 0 0 0 0 0 0 0 0 0 0 0 0 0 0 127 0"/>
<feOffset dy="4"/>
<feGaussianBlur stdDeviation="2"/>
<feColorMatrix type="matrix" values="0 0 0 0 0 0 0 0 0 0 0 0 0 0 0 0 0 0 0.25 0"/>
<feBlend mode="normal" in2="BackgroundImageFix" result="effect1_dropShadow"/>
<feBlend mode="normal" in="SourceGraphic" in2="effect1_dropShadow" result="shape"/>
</filter>
</defs>
</svg>
