<svg width="938" height="970" viewBox="0 0 938 970" fill="none" xmlns="http://www.w3.org/2000/svg">
<g filter="url(#filter0_di)">
<path d="M469 938C713.182 938 910 732.758 910 481C910 229.242 713.182 24 469 24C224.818 24 28 229.242 28 481C28 732.758 224.818 938 469 938Z" stroke="white" stroke-width="36"/>
<path d="M469 938C713.182 938 910 732.758 910 481C910 229.242 713.182 24 469 24C224.818 24 28 229.242 28 481C28 732.758 224.818 938 469 938Z" stroke="url(#paint0_linear)" stroke-width="36"/>
</g>
<path d="M472.7 483.05L470.15 468.2H469.25L466.85 483.05L455 525.95C454.6 527.55 454.05 528.65 453.35 529.25C452.75 529.75 451.65 530 450.05 530H440L421.7 429.05C421.1 426.35 422.1 425 424.7 425H432.8L445.4 498.2L448.4 516.2H449.3L452.9 498.2L464.6 455.3C464.8 454.8 465.15 454.3 465.65 453.8C466.25 453.3 466.95 453.05 467.75 453.05H475.85L486.5 498.2L490.25 516.2H491.15L494 498.2L505.4 429.05C505.7 427.45 506.2 426.4 506.9 425.9C507.7 425.3 508.9 425 510.5 425H517.85L499.85 525.95C499.45 527.55 498.9 528.65 498.2 529.25C497.6 529.85 496.5 530.15 494.9 530.15H484.25L472.7 483.05Z" fill="#3A3A3A"/>
<mask id="path-3-inside-1" fill="white">
<path d="M451.101 125.143C429.787 128.536 409.858 137.859 393.593 152.045C377.327 166.231 365.382 184.707 359.123 205.362C352.864 226.017 352.544 248.016 358.198 268.845C363.853 289.673 375.255 308.49 391.101 323.143C402.101 334.143 404.101 337.143 408.101 344.143C412.101 354.143 414.101 360.143 414.101 370.143C414.101 386.143 408.101 399.143 396.101 411.143C390.861 416.72 384.496 421.119 377.428 424.05C370.36 426.981 362.749 428.376 355.101 428.143C338.101 428.143 327.101 423.143 310.101 406.143C292.101 390.143 279.101 381.143 261.101 376.143C215.101 361.143 164.101 377.143 135.101 415.143C118 437.074 109.505 464.499 111.216 492.257C112.927 520.014 124.725 546.189 144.39 565.854C164.055 585.519 190.229 597.317 217.987 599.028C245.744 600.739 273.17 592.244 295.101 575.143C302.101 570.143 305.101 566.143 317.101 553.143C322.101 548.143 332.101 542.143 340.101 539.143C368.101 531.143 397.101 543.143 410.101 569.143C415.101 579.143 416.101 586.143 416.101 598.143C415.101 614.143 409.101 627.143 398.101 638.143C384.331 650.103 373.632 665.193 366.902 682.144C360.172 699.096 357.607 717.415 359.424 735.563C361.24 753.711 367.384 771.158 377.34 786.44C387.296 801.721 400.773 814.391 416.64 823.385C432.507 832.379 450.3 837.435 468.526 838.128C486.751 838.821 504.877 835.131 521.381 827.367C537.885 819.604 552.285 807.994 563.373 793.513C574.46 779.031 581.912 762.101 585.101 744.143C587.101 731.143 586.101 711.143 583.101 699.143C577.101 676.143 569.101 661.143 550.101 642.143C533.101 624.143 530.101 618.143 526.101 603.143C521.101 578.143 535.101 551.143 559.101 540.143C572.101 534.143 584.101 533.143 597.101 536.143C610.101 539.143 616.101 543.143 628.101 556.143C639.96 568.855 654.548 578.713 670.767 584.975C686.985 591.237 704.413 593.74 721.738 592.297C739.064 590.853 755.836 585.5 770.795 576.64C785.753 567.779 798.508 555.643 808.101 541.143C820.101 524.143 826.101 505.143 827.101 484.143C828.101 451.143 817.101 422.143 793.101 398.143C782.192 387.163 769.144 378.542 754.766 372.813C740.388 367.083 724.986 364.369 709.516 364.838C694.045 365.307 678.836 368.949 664.831 375.538C650.826 382.127 638.324 391.523 628.101 403.143L612.101 417.143C599.101 425.143 583.101 428.143 570.101 425.143C549.101 420.143 535.101 407.143 527.101 387.143C524.101 380.143 524.101 378.143 524.101 367.143C524.101 357.143 524.101 355.143 526.101 349.143C530.101 338.143 535.101 332.143 544.101 323.143C570.101 297.143 582.101 268.143 581.101 233.143C580.422 217.236 576.419 201.646 569.349 187.38C562.279 173.114 552.299 160.487 540.052 150.312C527.805 140.138 513.563 132.642 498.242 128.307C482.922 123.972 466.863 122.894 451.101 125.143ZM488.101 174.143C508.101 181.143 525.101 198.143 531.101 219.143C534.101 230.143 534.101 246.143 531.101 257.143C526.985 270.191 519.084 281.721 508.4 290.268C497.717 298.814 484.734 303.992 471.101 305.143C461.157 305.922 451.166 304.471 441.854 300.896C432.543 297.321 424.148 291.712 417.281 284.479C410.414 277.246 405.248 268.571 402.161 259.087C399.074 249.603 398.143 239.55 399.436 229.66C400.729 219.77 404.214 210.294 409.636 201.923C415.058 193.552 422.281 186.497 430.777 181.273C439.273 176.049 448.829 172.788 458.746 171.727C468.663 170.667 478.692 171.834 488.101 175.143V174.143ZM734.101 416.143C747.705 420.585 759.529 429.267 767.842 440.916C776.155 452.566 780.519 466.571 780.296 480.881C780.072 495.19 775.273 509.052 766.6 520.436C757.927 531.82 745.837 540.128 732.101 544.143L713.101 545.143C703.101 545.143 700.101 545.143 693.101 543.143C680.601 539.012 669.595 531.29 661.458 520.942C653.321 510.594 648.412 498.078 647.345 484.957C646.279 471.835 649.101 458.691 655.46 447.164C661.819 435.637 671.433 426.239 683.101 420.143C695.101 414.143 703.101 412.143 716.101 412.143C723.101 413.143 728.101 413.143 734.101 416.143ZM246.101 420.143C266.101 426.143 282.101 442.143 289.101 463.143C292.101 471.143 292.101 473.143 292.101 484.143C292.101 495.143 292.101 497.143 290.101 504.143C280.101 531.143 257.101 549.143 229.101 551.143C218.101 551.143 208.101 549.143 196.101 543.143C185.079 537.522 175.86 528.915 169.495 518.306C163.13 507.698 159.874 495.513 160.101 483.143C160.101 473.143 160.101 471.143 163.101 463.143C171.101 440.143 189.101 424.143 212.101 418.143C221.101 416.143 237.101 417.143 246.101 420.143ZM492.101 661.143C513.101 668.143 528.101 683.143 535.101 704.143C538.101 712.143 538.101 714.143 538.101 724.143C538.101 735.143 538.101 738.143 536.101 745.143C531.975 758.843 523.573 770.863 512.123 779.443C500.673 788.023 486.777 792.712 472.469 792.824C458.162 792.936 444.194 788.464 432.612 780.064C421.029 771.664 412.439 759.777 408.101 746.143C406.101 739.143 406.101 736.143 406.101 725.143C406.101 714.143 406.101 712.143 409.101 704.143C413.777 690.452 422.699 678.609 434.568 670.336C446.438 662.063 460.637 657.792 475.101 658.143C482.101 659.143 487.101 659.143 492.101 661.143Z"/>
</mask>
<path d="M451.101 125.143C429.787 128.536 409.858 137.859 393.593 152.045C377.327 166.231 365.382 184.707 359.123 205.362C352.864 226.017 352.544 248.016 358.198 268.845C363.853 289.673 375.255 308.49 391.101 323.143C402.101 334.143 404.101 337.143 408.101 344.143C412.101 354.143 414.101 360.143 414.101 370.143C414.101 386.143 408.101 399.143 396.101 411.143C390.861 416.72 384.496 421.119 377.428 424.05C370.36 426.981 362.749 428.376 355.101 428.143C338.101 428.143 327.101 423.143 310.101 406.143C292.101 390.143 279.101 381.143 261.101 376.143C215.101 361.143 164.101 377.143 135.101 415.143C118 437.074 109.505 464.499 111.216 492.257C112.927 520.014 124.725 546.189 144.39 565.854C164.055 585.519 190.229 597.317 217.987 599.028C245.744 600.739 273.17 592.244 295.101 575.143C302.101 570.143 305.101 566.143 317.101 553.143C322.101 548.143 332.101 542.143 340.101 539.143C368.101 531.143 397.101 543.143 410.101 569.143C415.101 579.143 416.101 586.143 416.101 598.143C415.101 614.143 409.101 627.143 398.101 638.143C384.331 650.103 373.632 665.193 366.902 682.144C360.172 699.096 357.607 717.415 359.424 735.563C361.24 753.711 367.384 771.158 377.34 786.44C387.296 801.721 400.773 814.391 416.64 823.385C432.507 832.379 450.3 837.435 468.526 838.128C486.751 838.821 504.877 835.131 521.381 827.367C537.885 819.604 552.285 807.994 563.373 793.513C574.46 779.031 581.912 762.101 585.101 744.143C587.101 731.143 586.101 711.143 583.101 699.143C577.101 676.143 569.101 661.143 550.101 642.143C533.101 624.143 530.101 618.143 526.101 603.143C521.101 578.143 535.101 551.143 559.101 540.143C572.101 534.143 584.101 533.143 597.101 536.143C610.101 539.143 616.101 543.143 628.101 556.143C639.96 568.855 654.548 578.713 670.767 584.975C686.985 591.237 704.413 593.74 721.738 592.297C739.064 590.853 755.836 585.5 770.795 576.64C785.753 567.779 798.508 555.643 808.101 541.143C820.101 524.143 826.101 505.143 827.101 484.143C828.101 451.143 817.101 422.143 793.101 398.143C782.192 387.163 769.144 378.542 754.766 372.813C740.388 367.083 724.986 364.369 709.516 364.838C694.045 365.307 678.836 368.949 664.831 375.538C650.826 382.127 638.324 391.523 628.101 403.143L612.101 417.143C599.101 425.143 583.101 428.143 570.101 425.143C549.101 420.143 535.101 407.143 527.101 387.143C524.101 380.143 524.101 378.143 524.101 367.143C524.101 357.143 524.101 355.143 526.101 349.143C530.101 338.143 535.101 332.143 544.101 323.143C570.101 297.143 582.101 268.143 581.101 233.143C580.422 217.236 576.419 201.646 569.349 187.38C562.279 173.114 552.299 160.487 540.052 150.312C527.805 140.138 513.563 132.642 498.242 128.307C482.922 123.972 466.863 122.894 451.101 125.143ZM488.101 174.143C508.101 181.143 525.101 198.143 531.101 219.143C534.101 230.143 534.101 246.143 531.101 257.143C526.985 270.191 519.084 281.721 508.4 290.268C497.717 298.814 484.734 303.992 471.101 305.143C461.157 305.922 451.166 304.471 441.854 300.896C432.543 297.321 424.148 291.712 417.281 284.479C410.414 277.246 405.248 268.571 402.161 259.087C399.074 249.603 398.143 239.55 399.436 229.66C400.729 219.77 404.214 210.294 409.636 201.923C415.058 193.552 422.281 186.497 430.777 181.273C439.273 176.049 448.829 172.788 458.746 171.727C468.663 170.667 478.692 171.834 488.101 175.143V174.143ZM734.101 416.143C747.705 420.585 759.529 429.267 767.842 440.916C776.155 452.566 780.519 466.571 780.296 480.881C780.072 495.19 775.273 509.052 766.6 520.436C757.927 531.82 745.837 540.128 732.101 544.143L713.101 545.143C703.101 545.143 700.101 545.143 693.101 543.143C680.601 539.012 669.595 531.29 661.458 520.942C653.321 510.594 648.412 498.078 647.345 484.957C646.279 471.835 649.101 458.691 655.46 447.164C661.819 435.637 671.433 426.239 683.101 420.143C695.101 414.143 703.101 412.143 716.101 412.143C723.101 413.143 728.101 413.143 734.101 416.143ZM246.101 420.143C266.101 426.143 282.101 442.143 289.101 463.143C292.101 471.143 292.101 473.143 292.101 484.143C292.101 495.143 292.101 497.143 290.101 504.143C280.101 531.143 257.101 549.143 229.101 551.143C218.101 551.143 208.101 549.143 196.101 543.143C185.079 537.522 175.86 528.915 169.495 518.306C163.13 507.698 159.874 495.513 160.101 483.143C160.101 473.143 160.101 471.143 163.101 463.143C171.101 440.143 189.101 424.143 212.101 418.143C221.101 416.143 237.101 417.143 246.101 420.143ZM492.101 661.143C513.101 668.143 528.101 683.143 535.101 704.143C538.101 712.143 538.101 714.143 538.101 724.143C538.101 735.143 538.101 738.143 536.101 745.143C531.975 758.843 523.573 770.863 512.123 779.443C500.673 788.023 486.777 792.712 472.469 792.824C458.162 792.936 444.194 788.464 432.612 780.064C421.029 771.664 412.439 759.777 408.101 746.143C406.101 739.143 406.101 736.143 406.101 725.143C406.101 714.143 406.101 712.143 409.101 704.143C413.777 690.452 422.699 678.609 434.568 670.336C446.438 662.063 460.637 657.792 475.101 658.143C482.101 659.143 487.101 659.143 492.101 661.143Z" fill="white" stroke="black" stroke-width="2" mask="url(#path-3-inside-1)"/>
<defs>
<filter id="filter0_di" x="0" y="0" width="938" height="970" filterUnits="userSpaceOnUse" color-interpolation-filters="sRGB">
<feFlood flood-opacity="0" result="BackgroundImageFix"/>
<feColorMatrix in="SourceAlpha" type="matrix" values="0 0 0 0 0 0 0 0 0 0 0 0 0 0 0 0 0 0 127 0"/>
<feOffset dy="4"/>
<feGaussianBlur stdDeviation="5"/>
<feColorMatrix type="matrix" values="0 0 0 0 0 0 0 0 0 0 0 0 0 0 0 0 0 0 0.25 0"/>
<feBlend mode="normal" in2="BackgroundImageFix" result="effect1_dropShadow"/>
<feBlend mode="normal" in="SourceGraphic" in2="effect1_dropShadow" result="shape"/>
<feColorMatrix in="SourceAlpha" type="matrix" values="0 0 0 0 0 0 0 0 0 0 0 0 0 0 0 0 0 0 127 0" result="hardAlpha"/>
<feOffset dy="4"/>
<feGaussianBlur stdDeviation="2"/>
<feComposite in2="hardAlpha" operator="arithmetic" k2="-1" k3="1"/>
<feColorMatrix type="matrix" values="0 0 0 0 0 0 0 0 0 0 0 0 0 0 0 0 0 0 0.25 0"/>
<feBlend mode="normal" in2="shape" result="effect2_innerShadow"/>
</filter>
<linearGradient id="paint0_linear" x1="469" y1="42" x2="469" y2="920" gradientUnits="userSpaceOnUse">
<stop stop-color="white"/>
<stop offset="1" stop-color="white" stop-opacity="0"/>
</linearGradient>
</defs>
</svg>
